# This file uses centimeters as units for non-parametric coordinates.

mtllib dome-lung-lobby.mtl
g default
v 0.000000 0.000000 -6.874971
v 4.974776 3.614386 -3.074580
v -1.900196 5.848200 -3.074580
v -6.149162 -0.000001 -3.074581
v 6.149162 0.000000 3.074581
v 1.900195 5.848200 3.074580
v -4.974777 3.614386 3.074581
v 0.000000 0.000000 6.874971
v -1.116907 3.437486 -5.848199
v 1.807193 5.561969 -3.614386
v 2.924100 2.124483 -5.848199
v 1.289693 3.969267 -5.463227
v -3.614386 -0.000000 -5.848200
v -4.731294 3.437486 -3.614386
v -3.376460 2.453142 -5.463227
v 5.848200 -0.000000 -3.614386
v 4.173534 -0.000000 -5.463227
v -0.000000 6.874971 0.000000
v 4.041007 5.561968 0.000000
v 2.086767 6.422408 -1.289693
v -6.538487 2.124482 0.000000
v -4.041007 5.561968 0.000000
v -5.463228 3.969266 -1.289693
v 6.538486 2.124483 0.000000
v 6.752920 -0.000000 -1.289693
v 4.731293 3.437486 3.614386
v 5.463227 3.969267 1.289693
v -1.807193 5.561968 3.614386
v -2.086768 6.422408 1.289693
v -5.848200 -0.000001 3.614386
v -6.752919 -0.000001 1.289693
v 1.116907 3.437486 5.848199
v 3.614386 0.000000 5.848200
v 3.376460 2.453142 5.463227
v -2.924100 2.124483 5.848200
v -1.289693 3.969267 5.463227
v -4.173534 -0.000001 5.463227
v 0.000000 -0.000001 -0.000000
v 2.924100 2.124483 -5.848199
v 0.000000 0.000000 -6.874971
v -1.116907 3.437486 -5.848199
v 1.289693 3.969267 -5.463227
v -1.900196 5.848200 -3.074580
v 1.807193 5.561969 -3.614386
v 4.974776 3.614386 -3.074580
v -3.614386 -0.000000 -5.848200
v -3.376460 2.453142 -5.463227
v -6.149162 -0.000001 -3.074581
v -4.731294 3.437486 -3.614386
v 5.848200 -0.000000 -3.614386
v 4.173534 -0.000000 -5.463227
v 4.041007 5.561968 0.000000
v 2.086767 6.422408 -1.289693
v -0.000000 6.874971 0.000000
v 1.900195 5.848200 3.074580
v -4.041007 5.561968 0.000000
v -5.463228 3.969266 -1.289693
v -6.538487 2.124482 0.000000
v -4.974777 3.614386 3.074581
v 6.538486 2.124483 0.000000
v 6.752920 -0.000000 -1.289693
v 5.463227 3.969267 1.289693
v 4.731293 3.437486 3.614386
v 6.149162 0.000000 3.074581
v -2.086768 6.422408 1.289693
v -1.807193 5.561968 3.614386
v -5.848200 -0.000001 3.614386
v -6.752919 -0.000001 1.289693
v 3.614386 0.000000 5.848200
v 3.376460 2.453142 5.463227
v 1.116907 3.437486 5.848199
v 0.000000 0.000000 6.874971
v -1.289693 3.969267 5.463227
v -2.924100 2.124483 5.848200
v -4.173534 -0.000001 5.463227
v 0.000000 -0.000001 -0.000000
vt 1.000000 0.500000
vt 0.838104 0.676208
vt 0.088104 0.823792
vt 0.176208 0.500000
vt 0.676208 0.500000
vt 0.588104 0.823792
vt 0.338104 0.676208
vt 0.500000 0.500000
vt 0.030034 0.666667
vt 0.926208 0.800000
vt 0.926208 0.600000
vt 0.963104 0.695913
vt 0.088104 0.500000
vt 0.146174 0.666667
vt 0.088104 0.616140
vt 0.838104 0.500000
vt 0.896174 0.500000
vt 0.250000 1.000000
vt 0.750000 0.800000
vt 0.838104 0.883860
vt 0.250000 0.600000
vt 0.250000 0.800000
vt 0.213104 0.695913
vt 0.750000 0.600000
vt 0.780034 0.500000
vt 0.646174 0.666667
vt 0.713104 0.695913
vt 0.426208 0.800000
vt 0.338104 0.883860
vt 0.338104 0.500000
vt 0.280034 0.500000
vt 0.530034 0.666667
vt 0.588104 0.500000
vt 0.588104 0.616140
vt 0.426208 0.600000
vt 0.463104 0.695913
vt 0.396174 0.500000
vt 1.030034 0.666667
vt 1.088104 0.823792
vt 1.088104 0.500000
vt 1.088104 0.616140
vt 1.250000 1.000000
vt 0.530034 0.500000
vt 0.926208 0.600000
vt 1.000000 0.500000
vt 1.030034 0.666667
vt 0.963104 0.695913
vt 1.088104 0.823792
vt 0.926208 0.800000
vt 0.838104 0.676208
vt 1.088104 0.500000
vt 1.088104 0.616140
vt 0.088104 0.500000
vt 0.176208 0.500000
vt 0.146174 0.666667
vt 0.088104 0.616140
vt 0.088104 0.823792
vt 0.030034 0.666667
vt 0.838104 0.500000
vt 0.896174 0.500000
vt 0.750000 0.800000
vt 0.838104 0.883860
vt 1.250000 1.000000
vt 0.588104 0.823792
vt 0.250000 0.800000
vt 0.213104 0.695913
vt 0.250000 0.600000
vt 0.338104 0.676208
vt 0.750000 0.600000
vt 0.780034 0.500000
vt 0.713104 0.695913
vt 0.646174 0.666667
vt 0.676208 0.500000
vt 0.250000 1.000000
vt 0.338104 0.883860
vt 0.426208 0.800000
vt 0.338104 0.500000
vt 0.280034 0.500000
vt 0.588104 0.500000
vt 0.588104 0.616140
vt 0.530034 0.666667
vt 0.500000 0.500000
vt 0.463104 0.695913
vt 0.426208 0.600000
vt 0.396174 0.500000
vt 0.530034 0.500000
vn 0.436540 0.354930 -0.826715
vn -0.024265 -0.763182 -0.645728
vn -0.162460 0.500000 -0.850651
vn 0.187592 0.577350 -0.794655
vn -0.276393 0.850651 -0.447214
vn 0.262866 0.809017 -0.525731
vn 0.723607 0.525731 -0.447214
vn -0.372003 -0.706621 -0.601914
vn -0.491123 0.356822 -0.794654
vn -0.566705 -0.763182 -0.310482
vn -0.688191 0.500000 -0.525731
vn 0.736404 -0.500573 -0.455122
vn 0.450563 -0.730050 -0.513830
vn 0.587785 0.809017 0.000000
vn 0.303531 0.934172 -0.187592
vn -0.000000 1.000000 0.000000
vn 0.276393 0.850651 0.447214
vn -0.587785 0.809017 0.000000
vn -0.794654 0.577350 -0.187592
vn -0.934663 0.354930 0.020735
vn -0.723607 0.525731 0.447214
vn 0.934663 0.354930 -0.020735
vn 0.661081 -0.730050 -0.173204
vn 0.794655 0.577350 0.187592
vn 0.688191 0.500000 0.525731
vn 0.566705 -0.763182 0.310482
vn -0.303531 0.934172 0.187593
vn -0.262866 0.809017 0.525731
vn -0.736404 -0.500573 0.455122
vn -0.661081 -0.730050 0.173204
vn 0.372003 -0.706621 0.601914
vn 0.491123 0.356822 0.794654
vn 0.162460 0.500000 0.850651
vn 0.024265 -0.763182 0.645728
vn -0.187593 0.577350 0.794655
vn -0.436540 0.354930 0.826715
vn -0.450563 -0.730050 0.513829
vn 0.000000 -1.000000 0.000000
vn -0.436540 -0.354930 0.826715
vn -0.187592 -0.577350 0.794655
vn 0.162460 -0.500000 0.850651
vn 0.024265 0.763182 0.645728
vn -0.262866 -0.809017 0.525731
vn 0.276393 -0.850651 0.447214
vn -0.723607 -0.525731 0.447214
vn 0.491123 -0.356822 0.794655
vn 0.372003 0.706621 0.601914
vn 0.688191 -0.500000 0.525731
vn 0.566705 0.763182 0.310482
vn -0.450563 0.730050 0.513830
vn -0.736404 0.500573 0.455122
vn -0.587785 -0.809017 -0.000000
vn -0.303531 -0.934172 0.187592
vn 0.000000 -1.000000 -0.000000
vn -0.276393 -0.850651 -0.447214
vn 0.587785 -0.809017 0.000000
vn 0.794654 -0.577350 0.187592
vn 0.934663 -0.354930 -0.020735
vn 0.723607 -0.525731 -0.447214
vn -0.661081 0.730050 0.173204
vn -0.934663 -0.354930 0.020735
vn -0.794655 -0.577350 -0.187592
vn -0.688191 -0.500000 -0.525731
vn -0.566705 0.763182 -0.310482
vn 0.303531 -0.934172 -0.187593
vn 0.262866 -0.809017 -0.525731
vn 0.736404 0.500573 -0.455122
vn 0.661081 0.730050 -0.173204
vn -0.372003 0.706621 -0.601914
vn -0.491123 -0.356822 -0.794654
vn -0.162460 -0.500000 -0.850651
vn -0.024265 0.763182 -0.645728
vn 0.187593 -0.577350 -0.794655
vn 0.436540 -0.354930 -0.826715
vn 0.450563 0.730050 -0.513830
vn -0.000000 1.000000 -0.000000
s 1
g pPlatonic3
usemtl initialShadingGroup
f 39/11/1 40/1/2 41/38/3 42/12/4
f 41/38/3 43/39/5 44/10/6 42/12/4
f 44/10/6 45/2/7 39/11/1 42/12/4
f 41/38/3 40/1/2 46/40/8 47/41/9
f 46/13/8 48/4/10 49/14/11 47/15/9
f 49/14/11 43/3/5 41/9/3 47/15/9
f 39/11/1 45/2/7 50/16/12 51/17/13
f 52/19/14 45/2/7 44/10/6 53/20/15
f 44/10/6 43/39/5 54/42/16 53/20/15
f 54/42/16 55/6/17 52/19/14 53/20/15
f 56/22/18 43/3/5 49/14/11 57/23/19
f 49/14/11 48/4/10 58/21/20 57/23/19
f 58/21/20 59/7/21 56/22/18 57/23/19
f 50/16/12 45/2/7 60/24/22 61/25/23
f 60/24/22 45/2/7 52/19/14 62/27/24
f 52/19/14 55/6/17 63/26/25 62/27/24
f 63/26/25 64/5/26 60/24/22 62/27/24
f 54/18/16 43/3/5 56/22/18 65/29/27
f 56/22/18 59/7/21 66/28/28 65/29/27
f 66/28/28 55/6/17 54/18/16 65/29/27
f 67/30/29 59/7/21 58/21/20 68/31/30
f 69/33/31 64/5/26 63/26/25 70/34/32
f 63/26/25 55/6/17 71/32/33 70/34/32
f 71/32/33 72/8/34 69/33/31 70/34/32
f 71/32/33 55/6/17 66/28/28 73/36/35
f 66/28/28 59/7/21 74/35/36 73/36/35
f 74/35/36 72/8/34 71/32/33 73/36/35
f 74/35/36 59/7/21 67/30/29 75/37/37
f 58/21/20 48/4/10 68/31/30
f 75/37/37 72/8/34 74/35/36
f 60/24/22 64/5/26 61/25/23
f 51/17/13 40/1/2 39/11/1
f 76/43/38 51/17/13 50/16/12
f 64/5/26 76/43/38 61/25/23
f 69/33/31 76/43/38 64/5/26
f 48/4/10 76/43/38 68/31/30
f 75/37/37 76/43/38 72/8/34
f 46/40/8 40/1/2 76/43/38
f 68/31/30 76/43/38 67/30/29
f 76/43/38 40/1/2 51/17/13
f 76/43/38 50/16/12 61/25/23
f 67/30/29 76/43/38 75/37/37
f 72/8/34 76/43/38 69/33/31
f 46/40/8 76/43/38 48/4/10
s 2
f 11/44/39 12/47/40 9/46/41 1/45/42
f 9/46/41 12/47/40 10/49/43 3/48/44
f 10/49/43 12/47/40 11/44/39 2/50/45
f 9/46/41 15/52/46 13/51/47 1/45/42
f 13/53/47 15/56/46 14/55/48 4/54/49
f 14/55/48 15/56/46 9/58/41 3/57/44
f 11/44/39 17/60/50 16/59/51 2/50/45
f 19/61/52 20/62/53 10/49/43 2/50/45
f 10/49/43 20/62/53 18/63/54 3/48/44
f 18/63/54 20/62/53 19/61/52 6/64/55
f 22/65/56 23/66/57 14/55/48 3/57/44
f 14/55/48 23/66/57 21/67/58 4/54/49
f 21/67/58 23/66/57 22/65/56 7/68/59
f 16/59/51 25/70/60 24/69/61 2/50/45
f 24/69/61 27/71/62 19/61/52 2/50/45
f 19/61/52 27/71/62 26/72/63 6/64/55
f 26/72/63 27/71/62 24/69/61 5/73/64
f 18/74/54 29/75/65 22/65/56 3/57/44
f 22/65/56 29/75/65 28/76/66 7/68/59
f 28/76/66 29/75/65 18/74/54 6/64/55
f 30/77/67 31/78/68 21/67/58 7/68/59
f 33/79/69 34/80/70 26/72/63 5/73/64
f 26/72/63 34/80/70 32/81/71 6/64/55
f 32/81/71 34/80/70 33/79/69 8/82/72
f 32/81/71 36/83/73 28/76/66 6/64/55
f 28/76/66 36/83/73 35/84/74 7/68/59
f 35/84/74 36/83/73 32/81/71 8/82/72
f 35/84/74 37/85/75 30/77/67 7/68/59
f 21/67/58 31/78/68 4/54/49
f 37/85/75 35/84/74 8/82/72
f 24/69/61 25/70/60 5/73/64
f 17/60/50 11/44/39 1/45/42
f 38/86/76 16/59/51 17/60/50
f 5/73/64 25/70/60 38/86/76
f 33/79/69 5/73/64 38/86/76
f 4/54/49 31/78/68 38/86/76
f 37/85/75 8/82/72 38/86/76
f 13/51/47 38/86/76 1/45/42
f 31/78/68 30/77/67 38/86/76
f 38/86/76 17/60/50 1/45/42
f 38/86/76 25/70/60 16/59/51
f 30/77/67 37/85/75 38/86/76
f 8/82/72 33/79/69 38/86/76
f 13/51/47 4/54/49 38/86/76
g default
v 0.000000 -0.017099 -7.019350
v 5.079250 3.673192 -3.139149
v -1.940101 5.953917 -3.139149
v -6.278298 -0.017099 -3.139149
v 6.278298 -0.017099 3.139149
v 1.940100 5.953917 3.139148
v -5.079250 3.673192 3.139149
v 0.000000 -0.017099 7.019350
v -1.140363 3.492576 -5.971015
v 1.845145 5.661675 -3.690291
v 2.985508 2.152000 -5.971015
v 1.316777 4.035525 -5.577958
v -3.690291 -0.017099 -5.971016
v -4.830654 3.492576 -3.690291
v -3.447368 2.487560 -5.577958
v 5.971016 -0.017099 -3.690291
v 4.261181 -0.017099 -5.577958
v -0.000000 7.002251 0.000000
v 4.125870 5.661674 0.000000
v 2.130590 6.540184 -1.316777
v -6.675799 2.151999 0.000000
v -4.125871 5.661674 0.000000
v -5.577959 4.035525 -1.316777
v 6.675798 2.151999 0.000000
v 6.894735 -0.017099 -1.316777
v 4.830653 3.492576 3.690291
v 5.577958 4.035525 1.316777
v -1.845146 5.661674 3.690291
v -2.130591 6.540184 1.316777
v -5.971016 -0.017100 3.690291
v -6.894735 -0.017100 1.316777
v 1.140362 3.492576 5.971015
v 3.690291 -0.017099 5.971016
v 3.447368 2.487561 5.577958
v -2.985508 2.151999 5.971016
v -1.316777 4.035525 5.577958
v -4.261181 -0.017099 5.577958
v 0.000000 -0.017099 -0.000000
vt 1.000000 0.500000
vt 0.838104 0.676208
vt 0.088104 0.823792
vt 0.176208 0.500000
vt 0.676208 0.500000
vt 0.588104 0.823792
vt 0.338104 0.676208
vt 0.500000 0.500000
vt 0.030034 0.666667
vt 0.926208 0.800000
vt 0.926208 0.600000
vt 0.963104 0.695913
vt 0.088104 0.500000
vt 0.146174 0.666667
vt 0.088104 0.616140
vt 0.838104 0.500000
vt 0.896174 0.500000
vt 0.250000 1.000000
vt 0.750000 0.800000
vt 0.838104 0.883860
vt 0.250000 0.600000
vt 0.250000 0.800000
vt 0.213104 0.695913
vt 0.750000 0.600000
vt 0.780034 0.500000
vt 0.646174 0.666667
vt 0.713104 0.695913
vt 0.426208 0.800000
vt 0.338104 0.883860
vt 0.338104 0.500000
vt 0.280034 0.500000
vt 0.530034 0.666667
vt 0.588104 0.500000
vt 0.588104 0.616140
vt 0.426208 0.600000
vt 0.463104 0.695913
vt 0.396174 0.500000
vt 1.030034 0.666667
vt 1.088104 0.823792
vt 1.088104 0.500000
vt 1.088104 0.616140
vt 1.250000 1.000000
vt 0.530034 0.500000
vn 0.436540 0.354930 -0.826715
vn -0.024265 -0.763182 -0.645728
vn -0.162460 0.500000 -0.850651
vn 0.187592 0.577350 -0.794654
vn -0.276393 0.850651 -0.447214
vn 0.262866 0.809017 -0.525731
vn 0.723607 0.525731 -0.447214
vn -0.372003 -0.706621 -0.601914
vn -0.491123 0.356822 -0.794654
vn -0.566705 -0.763182 -0.310482
vn -0.688191 0.500000 -0.525731
vn 0.736404 -0.500573 -0.455122
vn 0.450563 -0.730050 -0.513830
vn 0.587785 0.809017 0.000000
vn 0.303531 0.934172 -0.187592
vn -0.000000 1.000000 0.000000
vn 0.276393 0.850651 0.447214
vn -0.587785 0.809017 0.000000
vn -0.794654 0.577350 -0.187592
vn -0.934663 0.354930 0.020735
vn -0.723607 0.525731 0.447214
vn 0.934663 0.354930 -0.020735
vn 0.661081 -0.730050 -0.173204
vn 0.794654 0.577350 0.187592
vn 0.688191 0.500000 0.525731
vn 0.566705 -0.763182 0.310482
vn -0.303531 0.934172 0.187593
vn -0.262866 0.809017 0.525731
vn -0.736404 -0.500573 0.455122
vn -0.661081 -0.730050 0.173204
vn 0.372003 -0.706621 0.601914
vn 0.491123 0.356822 0.794654
vn 0.162460 0.500000 0.850651
vn 0.024265 -0.763182 0.645728
vn -0.187593 0.577350 0.794654
vn -0.436540 0.354930 0.826715
vn -0.450563 -0.730050 0.513829
vn 0.000000 -1.000000 0.000000
s 1
g pPlatonic4
usemtl initialShadingGroup
f 87/97/77 77/87/78 85/124/79 88/98/80
f 85/124/79 79/125/81 86/96/82 88/98/80
f 86/96/82 78/88/83 87/97/77 88/98/80
f 85/124/79 77/87/78 89/126/84 91/127/85
f 89/99/84 80/90/86 90/100/87 91/101/85
f 90/100/87 79/89/81 85/95/79 91/101/85
f 87/97/77 78/88/83 92/102/88 93/103/89
f 95/105/90 78/88/83 86/96/82 96/106/91
f 86/96/82 79/125/81 94/128/92 96/106/91
f 94/128/92 82/92/93 95/105/90 96/106/91
f 98/108/94 79/89/81 90/100/87 99/109/95
f 90/100/87 80/90/86 97/107/96 99/109/95
f 97/107/96 83/93/97 98/108/94 99/109/95
f 92/102/88 78/88/83 100/110/98 101/111/99
f 100/110/98 78/88/83 95/105/90 103/113/100
f 95/105/90 82/92/93 102/112/101 103/113/100
f 102/112/101 81/91/102 100/110/98 103/113/100
f 94/104/92 79/89/81 98/108/94 105/115/103
f 98/108/94 83/93/97 104/114/104 105/115/103
f 104/114/104 82/92/93 94/104/92 105/115/103
f 106/116/105 83/93/97 97/107/96 107/117/106
f 109/119/107 81/91/102 102/112/101 110/120/108
f 102/112/101 82/92/93 108/118/109 110/120/108
f 108/118/109 84/94/110 109/119/107 110/120/108
f 108/118/109 82/92/93 104/114/104 112/122/111
f 104/114/104 83/93/97 111/121/112 112/122/111
f 111/121/112 84/94/110 108/118/109 112/122/111
f 111/121/112 83/93/97 106/116/105 113/123/113
f 97/107/96 80/90/86 107/117/106
f 113/123/113 84/94/110 111/121/112
f 100/110/98 81/91/102 101/111/99
f 93/103/89 77/87/78 87/97/77
f 89/126/84 114/129/114 80/90/86
f 81/91/102 114/129/114 101/111/99
f 84/94/110 114/129/114 109/119/107
f 80/90/86 114/129/114 107/117/106
f 114/129/114 92/102/88 101/111/99
f 109/119/107 114/129/114 81/91/102
f 113/123/113 114/129/114 84/94/110
f 89/126/84 77/87/78 114/129/114
f 106/116/105 114/129/114 113/123/113
f 114/129/114 77/87/78 93/103/89
f 107/117/106 114/129/114 106/116/105
f 114/129/114 93/103/89 92/102/88
