# This file uses centimeters as units for non-parametric coordinates.

mtllib dome-lung-lobbu.mtl
g default
v 0.000000 -0.017099 -7.019350
v 5.079250 3.673192 -3.139149
v -1.940101 5.953917 -3.139149
v -6.278298 -0.017099 -3.139149
v 6.278298 -0.017099 3.139149
v 1.940100 5.953917 3.139148
v -5.079250 3.673192 3.139149
v 0.000000 -0.017099 7.019350
v -1.140363 3.492576 -5.971015
v 1.845145 5.661675 -3.690291
v 2.985508 2.152000 -5.971015
v 1.316777 4.035525 -5.577958
v -3.690291 -0.017099 -5.971016
v -4.830654 3.492576 -3.690291
v -3.447368 2.487560 -5.577958
v 5.971016 -0.017099 -3.690291
v 4.261181 -0.017099 -5.577958
v -0.000000 7.002251 0.000000
v 4.125870 5.661674 0.000000
v 2.130590 6.540184 -1.316777
v -6.675799 2.151999 0.000000
v -4.125871 5.661674 0.000000
v -5.577959 4.035525 -1.316777
v 6.675798 2.151999 0.000000
v 6.894735 -0.017099 -1.316777
v 4.830653 3.492576 3.690291
v 5.577958 4.035525 1.316777
v -1.845146 5.661674 3.690291
v -2.130591 6.540184 1.316777
v -5.971016 -0.017100 3.690291
v -6.894735 -0.017100 1.316777
v 1.140362 3.492576 5.971015
v 3.690291 -0.017099 5.971016
v 3.447368 2.487561 5.577958
v -2.985508 2.151999 5.971016
v -1.316777 4.035525 5.577958
v -4.261181 -0.017099 5.577958
v 0.000000 -0.017099 -0.000000
vt 1.000000 0.500000
vt 0.838104 0.676208
vt 0.088104 0.823792
vt 0.176208 0.500000
vt 0.676208 0.500000
vt 0.588104 0.823792
vt 0.338104 0.676208
vt 0.500000 0.500000
vt 0.030034 0.666667
vt 0.926208 0.800000
vt 0.926208 0.600000
vt 0.963104 0.695913
vt 0.088104 0.500000
vt 0.146174 0.666667
vt 0.088104 0.616140
vt 0.838104 0.500000
vt 0.896174 0.500000
vt 0.250000 1.000000
vt 0.750000 0.800000
vt 0.838104 0.883860
vt 0.250000 0.600000
vt 0.250000 0.800000
vt 0.213104 0.695913
vt 0.750000 0.600000
vt 0.780034 0.500000
vt 0.646174 0.666667
vt 0.713104 0.695913
vt 0.426208 0.800000
vt 0.338104 0.883860
vt 0.338104 0.500000
vt 0.280034 0.500000
vt 0.530034 0.666667
vt 0.588104 0.500000
vt 0.588104 0.616140
vt 0.426208 0.600000
vt 0.463104 0.695913
vt 0.396174 0.500000
vt 1.030034 0.666667
vt 1.088104 0.823792
vt 1.088104 0.500000
vt 1.088104 0.616140
vt 1.250000 1.000000
vt 0.530034 0.500000
vn 0.175402 0.211879 -0.961427
vn -0.036571 0.227059 -0.973194
vn -0.081566 0.251035 -0.964535
vn 0.099017 0.304743 -0.947273
vn -0.230113 0.708216 -0.667441
vn -0.276393 0.850651 -0.447214
vn -0.016570 0.863365 -0.504308
vn -0.046872 0.753743 -0.655496
vn 0.520879 0.688737 -0.504308
vn 0.723607 0.525731 -0.447214
vn 0.602445 0.437702 -0.667441
vn 0.480959 0.582240 -0.655496
vn -0.259230 0.188342 -0.947274
vn -0.259230 0.188342 -0.947274
vn -0.731336 0.188342 -0.655496
vn -0.854096 0.227058 -0.467935
vn -0.826229 0.251035 -0.504308
vn -0.731336 0.188342 -0.655496
vn -0.494067 0.708217 -0.504308
vn -0.405119 0.637341 -0.655496
vn 0.815988 0.282554 -0.504308
vn 0.702368 0.277497 -0.655496
vn 0.684011 0.688737 -0.240355
vn 0.542155 0.770582 -0.335070
vn -0.148547 0.959252 -0.240355
vn 0.014324 0.942084 -0.335070
vn 0.148547 0.959251 0.240355
vn 0.276393 0.850651 0.447214
vn 0.443657 0.863365 0.240355
vn 0.306102 0.942084 0.137036
vn -0.443657 0.863365 -0.240355
vn -0.565332 0.753743 -0.335070
vn -0.938369 0.211878 -0.273079
vn -0.891549 0.304743 -0.335070
vn -0.866399 0.437702 0.240355
vn -0.723607 0.525731 0.447214
vn -0.684011 0.688737 0.240355
vn -0.801385 0.582240 0.137036
vn 0.866399 0.437702 -0.240355
vn 0.900402 0.277497 -0.335070
vn 0.801385 0.582240 -0.137036
vn 0.494067 0.708217 0.504308
vn 0.565332 0.753743 0.335070
vn 0.826229 0.251035 0.504308
vn 0.854096 0.227059 0.467935
vn 0.938368 0.211879 0.273079
vn 0.891549 0.304743 0.335070
vn -0.306102 0.942084 -0.137036
vn -0.520879 0.688737 0.504308
vn -0.542155 0.770582 0.335070
vn 0.016570 0.863365 0.504308
vn -0.014324 0.942084 0.335070
vn -0.815988 0.282553 0.504308
vn -0.900402 0.277497 0.335070
vn 0.731336 0.188342 0.655496
vn 0.731336 0.188342 0.655496
vn 0.230114 0.708217 0.667441
vn 0.405119 0.637341 0.655496
vn 0.081566 0.251035 0.964535
vn 0.036571 0.227059 0.973194
vn 0.259230 0.188342 0.947274
vn 0.259230 0.188342 0.947274
vn 0.046872 0.753743 0.655496
vn -0.602445 0.437702 0.667441
vn -0.480959 0.582240 0.655496
vn -0.175402 0.211879 0.961427
vn -0.099017 0.304743 0.947273
vn -0.702368 0.277497 0.655496
vn -0.990426 0.016790 -0.137016
vn -0.320380 0.016791 0.947140
vn 0.990426 0.016791 0.137017
vn 0.320381 0.016791 -0.947140
vn 0.000000 -1.000000 -0.000000
vn 0.000000 -1.000000 0.000000
vn 0.000000 -1.000000 -0.000000
vn 0.000000 -1.000000 0.000000
vn 0.000000 -1.000000 0.000000
vn 0.000000 -1.000000 0.000000
vn 0.000000 -1.000000 0.000000
vn 0.000000 -1.000000 -0.000000
vn 0.000000 -1.000000 -0.000000
vn 0.000000 -1.000000 0.000000
vn 0.000000 -1.000000 -0.000000
vn 0.000000 -1.000000 0.000000
vn -0.000000 -1.000000 -0.000000
s 1
g pPlatonic4
usemtl initialShadingGroup
f 11/11/1 1/1/2 9/38/3 12/12/4
s 2
f 9/38/5 3/39/6 10/10/7 12/12/8
s 3
f 10/10/9 2/2/10 11/11/11 12/12/12
s 1
f 9/38/3 1/1/2 13/40/13 15/41/14
s 4
f 13/13/15 4/4/16 14/14/17 15/15/18
s 2
f 14/14/19 3/3/6 9/9/5 15/15/20
s 3
f 11/11/11 2/2/10 16/16/21 17/17/22
f 19/19/23 2/2/10 10/10/9 20/20/24
s 2
f 10/10/7 3/39/6 18/42/25 20/20/26
s 5
f 18/42/27 6/6/28 19/19/29 20/20/30
s 2
f 22/22/31 3/3/6 14/14/19 23/23/32
s 4
f 14/14/17 4/4/16 21/21/33 23/23/34
s 6
f 21/21/35 7/7/36 22/22/37 23/23/38
s 3
f 16/16/21 2/2/10 24/24/39 25/25/40
f 24/24/39 2/2/10 19/19/23 27/27/41
s 5
f 19/19/29 6/6/28 26/26/42 27/27/43
s 7
f 26/26/44 5/5/45 24/24/46 27/27/47
s 2
f 18/18/25 3/3/6 22/22/31 29/29/48
s 6
f 22/22/37 7/7/36 28/28/49 29/29/50
s 5
f 28/28/51 6/6/28 18/18/27 29/29/52
s 6
f 30/30/53 7/7/36 21/21/35 31/31/54
s 7
f 33/33/55 5/5/45 26/26/44 34/34/56
s 5
f 26/26/42 6/6/28 32/32/57 34/34/58
s 8
f 32/32/59 8/8/60 33/33/61 34/34/62
s 5
f 32/32/57 6/6/28 28/28/51 36/36/63
s 6
f 28/28/49 7/7/36 35/35/64 36/36/65
s 8
f 35/35/66 8/8/60 32/32/59 36/36/67
s 6
f 35/35/64 7/7/36 30/30/53 37/37/68
s 4
f 21/21/33 4/4/16 31/31/69
s 8
f 37/37/70 8/8/60 35/35/66
s 7
f 24/24/46 5/5/45 25/25/71
s 1
f 17/17/72 1/1/2 11/11/1
s 9
f 13/40/73 38/43/74 4/4/75
f 5/5/76 38/43/74 25/25/77
f 8/8/78 38/43/74 33/33/79
f 4/4/75 38/43/74 31/31/80
f 38/43/74 16/16/81 25/25/77
f 33/33/79 38/43/74 5/5/76
f 37/37/82 38/43/74 8/8/78
f 13/40/73 1/1/83 38/43/74
f 30/30/84 38/43/74 37/37/82
f 38/43/74 1/1/83 17/17/85
f 31/31/80 38/43/74 30/30/84
f 38/43/74 17/17/85 16/16/81
g default
v 0.000000 0.000000 -6.874971
v 4.974776 3.614386 -3.074580
v -1.900196 5.848200 -3.074580
v -6.149162 -0.000001 -3.074581
v 6.149162 0.000000 3.074581
v 1.900195 5.848200 3.074580
v -4.974777 3.614386 3.074581
v 0.000000 0.000000 6.874971
v -1.116907 3.437486 -5.848199
v 1.807193 5.561969 -3.614386
v 2.924100 2.124483 -5.848199
v 1.289693 3.969267 -5.463227
v -3.614386 -0.000000 -5.848200
v -4.731294 3.437486 -3.614386
v -3.376460 2.453142 -5.463227
v 5.848200 -0.000000 -3.614386
v 4.173534 -0.000000 -5.463227
v -0.000000 6.874971 0.000000
v 4.041007 5.561968 0.000000
v 2.086767 6.422408 -1.289693
v -6.538487 2.124482 0.000000
v -4.041007 5.561968 0.000000
v -5.463228 3.969266 -1.289693
v 6.538486 2.124483 0.000000
v 6.752920 -0.000000 -1.289693
v 4.731293 3.437486 3.614386
v 5.463227 3.969267 1.289693
v -1.807193 5.561968 3.614386
v -2.086768 6.422408 1.289693
v -5.848200 -0.000001 3.614386
v -6.752919 -0.000001 1.289693
v 1.116907 3.437486 5.848199
v 3.614386 0.000000 5.848200
v 3.376460 2.453142 5.463227
v -2.924100 2.124483 5.848200
v -1.289693 3.969267 5.463227
v -4.173534 -0.000001 5.463227
v 0.000000 -0.000001 -0.000000
v 2.924100 2.124483 -5.848199
v 0.000000 0.000000 -6.874971
v -1.116907 3.437486 -5.848199
v 1.289693 3.969267 -5.463227
v -1.900196 5.848200 -3.074580
v 1.807193 5.561969 -3.614386
v 4.974776 3.614386 -3.074580
v -3.614386 -0.000000 -5.848200
v -3.376460 2.453142 -5.463227
v -6.149162 -0.000001 -3.074581
v -4.731294 3.437486 -3.614386
v 5.848200 -0.000000 -3.614386
v 4.173534 -0.000000 -5.463227
v 4.041007 5.561968 0.000000
v 2.086767 6.422408 -1.289693
v -0.000000 6.874971 0.000000
v 1.900195 5.848200 3.074580
v -4.041007 5.561968 0.000000
v -5.463228 3.969266 -1.289693
v -6.538487 2.124482 0.000000
v -4.974777 3.614386 3.074581
v 6.538486 2.124483 0.000000
v 6.752920 -0.000000 -1.289693
v 5.463227 3.969267 1.289693
v 4.731293 3.437486 3.614386
v 6.149162 0.000000 3.074581
v -2.086768 6.422408 1.289693
v -1.807193 5.561968 3.614386
v -5.848200 -0.000001 3.614386
v -6.752919 -0.000001 1.289693
v 3.614386 0.000000 5.848200
v 3.376460 2.453142 5.463227
v 1.116907 3.437486 5.848199
v 0.000000 0.000000 6.874971
v -1.289693 3.969267 5.463227
v -2.924100 2.124483 5.848200
v -4.173534 -0.000001 5.463227
v 0.000000 -0.000001 -0.000000
vt 1.000000 0.500000
vt 0.838104 0.676208
vt 0.088104 0.823792
vt 0.176208 0.500000
vt 0.676208 0.500000
vt 0.588104 0.823792
vt 0.338104 0.676208
vt 0.500000 0.500000
vt 0.030034 0.666667
vt 0.926208 0.800000
vt 0.926208 0.600000
vt 0.963104 0.695913
vt 0.088104 0.500000
vt 0.146174 0.666667
vt 0.088104 0.616140
vt 0.838104 0.500000
vt 0.896174 0.500000
vt 0.250000 1.000000
vt 0.750000 0.800000
vt 0.838104 0.883860
vt 0.250000 0.600000
vt 0.250000 0.800000
vt 0.213104 0.695913
vt 0.750000 0.600000
vt 0.780034 0.500000
vt 0.646174 0.666667
vt 0.713104 0.695913
vt 0.426208 0.800000
vt 0.338104 0.883860
vt 0.338104 0.500000
vt 0.280034 0.500000
vt 0.530034 0.666667
vt 0.588104 0.500000
vt 0.588104 0.616140
vt 0.426208 0.600000
vt 0.463104 0.695913
vt 0.396174 0.500000
vt 1.030034 0.666667
vt 1.088104 0.823792
vt 1.088104 0.500000
vt 1.088104 0.616140
vt 1.250000 1.000000
vt 0.530034 0.500000
vt 0.926208 0.600000
vt 1.000000 0.500000
vt 1.030034 0.666667
vt 0.963104 0.695913
vt 1.088104 0.823792
vt 0.926208 0.800000
vt 0.838104 0.676208
vt 1.088104 0.500000
vt 1.088104 0.616140
vt 0.088104 0.500000
vt 0.176208 0.500000
vt 0.146174 0.666667
vt 0.088104 0.616140
vt 0.088104 0.823792
vt 0.030034 0.666667
vt 0.838104 0.500000
vt 0.896174 0.500000
vt 0.750000 0.800000
vt 0.838104 0.883860
vt 1.250000 1.000000
vt 0.588104 0.823792
vt 0.250000 0.800000
vt 0.213104 0.695913
vt 0.250000 0.600000
vt 0.338104 0.676208
vt 0.750000 0.600000
vt 0.780034 0.500000
vt 0.713104 0.695913
vt 0.646174 0.666667
vt 0.676208 0.500000
vt 0.250000 1.000000
vt 0.338104 0.883860
vt 0.426208 0.800000
vt 0.338104 0.500000
vt 0.280034 0.500000
vt 0.588104 0.500000
vt 0.588104 0.616140
vt 0.530034 0.666667
vt 0.500000 0.500000
vt 0.463104 0.695913
vt 0.426208 0.600000
vt 0.396174 0.500000
vt 0.530034 0.500000
vn 0.175402 0.211879 -0.961427
vn -0.036571 0.227059 -0.973194
vn -0.081566 0.251035 -0.964535
vn 0.099017 0.304743 -0.947274
vn -0.230113 0.708216 -0.667441
vn -0.276393 0.850651 -0.447214
vn -0.016570 0.863365 -0.504308
vn -0.046872 0.753743 -0.655496
vn 0.520879 0.688737 -0.504308
vn 0.723607 0.525731 -0.447214
vn 0.602445 0.437702 -0.667441
vn 0.480959 0.582240 -0.655496
vn -0.259230 0.188342 -0.947274
vn -0.259230 0.188342 -0.947274
vn -0.731336 0.188342 -0.655496
vn -0.854097 0.227058 -0.467935
vn -0.826229 0.251035 -0.504308
vn -0.731336 0.188342 -0.655496
vn -0.494067 0.708217 -0.504308
vn -0.405119 0.637341 -0.655496
vn 0.815988 0.282554 -0.504308
vn 0.702368 0.277497 -0.655496
vn 0.684011 0.688737 -0.240355
vn 0.542155 0.770582 -0.335070
vn -0.148547 0.959252 -0.240355
vn 0.014324 0.942084 -0.335070
vn 0.148547 0.959252 0.240355
vn 0.276393 0.850651 0.447214
vn 0.443657 0.863365 0.240355
vn 0.306102 0.942084 0.137036
vn -0.443657 0.863365 -0.240355
vn -0.565332 0.753743 -0.335070
vn -0.938369 0.211878 -0.273079
vn -0.891549 0.304743 -0.335070
vn -0.866399 0.437702 0.240354
vn -0.723607 0.525731 0.447214
vn -0.684011 0.688737 0.240355
vn -0.801385 0.582240 0.137036
vn 0.866399 0.437702 -0.240355
vn 0.900402 0.277497 -0.335070
vn 0.801385 0.582240 -0.137036
vn 0.494067 0.708217 0.504308
vn 0.565332 0.753743 0.335070
vn 0.826229 0.251035 0.504308
vn 0.854097 0.227059 0.467935
vn 0.938369 0.211879 0.273079
vn 0.891549 0.304743 0.335070
vn -0.306102 0.942084 -0.137036
vn -0.520879 0.688737 0.504308
vn -0.542155 0.770582 0.335070
vn 0.016570 0.863365 0.504308
vn -0.014324 0.942084 0.335070
vn -0.815988 0.282553 0.504308
vn -0.900402 0.277497 0.335070
vn 0.731336 0.188342 0.655496
vn 0.731336 0.188342 0.655496
vn 0.230114 0.708217 0.667441
vn 0.405119 0.637341 0.655496
vn 0.081566 0.251035 0.964535
vn 0.036571 0.227059 0.973194
vn 0.259230 0.188342 0.947274
vn 0.259230 0.188342 0.947274
vn 0.046872 0.753743 0.655496
vn -0.602445 0.437702 0.667441
vn -0.480959 0.582240 0.655496
vn -0.175402 0.211879 0.961427
vn -0.099017 0.304743 0.947274
vn -0.702368 0.277497 0.655496
vn -0.990426 0.016790 -0.137017
vn -0.320381 0.016791 0.947140
vn 0.990426 0.016791 0.137017
vn 0.320381 0.016791 -0.947140
vn 0.000000 -1.000000 0.000000
vn -0.000000 -1.000000 -0.000000
vn 0.000000 -1.000000 -0.000000
vn 0.000000 -1.000000 0.000000
vn 0.000000 -1.000000 0.000000
vn 0.000000 -1.000000 0.000000
vn 0.000000 -1.000000 -0.000000
vn 0.000000 -1.000000 -0.000000
vn 0.000000 -1.000000 0.000000
vn 0.000000 -1.000000 0.000000
vn 0.000000 -1.000000 -0.000000
vn 0.000000 -1.000000 -0.000000
vn 0.000000 -1.000000 0.000000
vn -0.175402 -0.211879 0.961427
vn -0.099017 -0.304743 0.947274
vn 0.081566 -0.251035 0.964535
vn 0.036571 -0.227059 0.973194
vn 0.230113 -0.708217 0.667441
vn 0.046872 -0.753743 0.655496
vn 0.016571 -0.863365 0.504308
vn 0.276393 -0.850651 0.447214
vn -0.520879 -0.688737 0.504308
vn -0.480959 -0.582240 0.655496
vn -0.602445 -0.437702 0.667441
vn -0.723607 -0.525731 0.447214
vn 0.259230 -0.188342 0.947274
vn 0.259230 -0.188342 0.947274
vn 0.731336 -0.188342 0.655496
vn 0.731336 -0.188342 0.655496
vn 0.826229 -0.251035 0.504308
vn 0.854097 -0.227058 0.467935
vn 0.494067 -0.708217 0.504308
vn 0.405119 -0.637341 0.655496
vn -0.702368 -0.277497 0.655496
vn -0.815988 -0.282554 0.504308
vn -0.684011 -0.688737 0.240354
vn -0.542155 -0.770582 0.335070
vn -0.014324 -0.942084 0.335070
vn 0.148547 -0.959251 0.240355
vn -0.148547 -0.959251 -0.240355
vn -0.306102 -0.942084 -0.137036
vn -0.443657 -0.863365 -0.240355
vn -0.276393 -0.850651 -0.447214
vn 0.443657 -0.863365 0.240355
vn 0.565332 -0.753743 0.335070
vn 0.891549 -0.304743 0.335070
vn 0.938369 -0.211878 0.273079
vn 0.866399 -0.437702 -0.240354
vn 0.801385 -0.582240 -0.137036
vn 0.684011 -0.688737 -0.240355
vn 0.723607 -0.525731 -0.447214
vn -0.900402 -0.277497 0.335070
vn -0.866399 -0.437702 0.240354
vn -0.801385 -0.582240 0.137036
vn -0.565332 -0.753743 -0.335070
vn -0.494067 -0.708217 -0.504308
vn -0.826229 -0.251035 -0.504308
vn -0.891549 -0.304743 -0.335070
vn -0.938369 -0.211879 -0.273079
vn -0.854097 -0.227059 -0.467935
vn 0.306102 -0.942084 0.137036
vn 0.542155 -0.770582 -0.335070
vn 0.520879 -0.688737 -0.504308
vn -0.016570 -0.863365 -0.504308
vn 0.014324 -0.942084 -0.335071
vn 0.815988 -0.282553 -0.504308
vn 0.900402 -0.277497 -0.335070
vn -0.731336 -0.188342 -0.655496
vn -0.731336 -0.188342 -0.655496
vn -0.405119 -0.637341 -0.655496
vn -0.230113 -0.708217 -0.667441
vn -0.081566 -0.251035 -0.964535
vn -0.259230 -0.188342 -0.947274
vn -0.259230 -0.188342 -0.947274
vn -0.036571 -0.227059 -0.973194
vn -0.046872 -0.753743 -0.655496
vn 0.480959 -0.582240 -0.655496
vn 0.602445 -0.437702 -0.667441
vn 0.175402 -0.211879 -0.961427
vn 0.099017 -0.304743 -0.947274
vn 0.702368 -0.277497 -0.655496
vn 0.990426 -0.016790 0.137017
vn 0.320380 -0.016791 -0.947140
vn -0.990426 -0.016791 -0.137017
vn -0.320381 -0.016791 0.947140
vn -0.000000 1.000000 -0.000000
vn -0.000000 1.000000 0.000000
vn 0.000000 1.000000 0.000000
vn -0.000000 1.000000 -0.000000
vn -0.000000 1.000000 -0.000000
vn -0.000000 1.000000 -0.000000
vn -0.000000 1.000000 0.000000
vn -0.000000 1.000000 0.000000
vn -0.000000 1.000000 -0.000000
vn -0.000000 1.000000 -0.000000
vn -0.000000 1.000000 0.000000
vn -0.000000 1.000000 0.000000
vn -0.000000 1.000000 -0.000000
s 1
g pPlatonic3
usemtl initialShadingGroup
f 77/54/86 78/44/87 79/81/88 80/55/89
s 2
f 79/81/90 81/82/91 82/53/92 80/55/93
s 3
f 82/53/94 83/45/95 77/54/96 80/55/97
s 1
f 79/81/88 78/44/87 84/83/98 85/84/99
s 4
f 84/56/100 86/47/101 87/57/102 85/58/103
s 2
f 87/57/104 81/46/91 79/52/90 85/58/105
s 3
f 77/54/96 83/45/95 88/59/106 89/60/107
f 90/62/108 83/45/95 82/53/94 91/63/109
s 2
f 82/53/92 81/82/91 92/85/110 91/63/111
s 5
f 92/85/112 93/49/113 90/62/114 91/63/115
s 2
f 94/65/116 81/46/91 87/57/104 95/66/117
s 4
f 87/57/102 86/47/101 96/64/118 95/66/119
s 6
f 96/64/120 97/50/121 94/65/122 95/66/123
s 3
f 88/59/106 83/45/95 98/67/124 99/68/125
f 98/67/124 83/45/95 90/62/108 100/70/126
s 5
f 90/62/114 93/49/113 101/69/127 100/70/128
s 7
f 101/69/129 102/48/130 98/67/131 100/70/132
s 2
f 92/61/110 81/46/91 94/65/116 103/72/133
s 6
f 94/65/122 97/50/121 104/71/134 103/72/135
s 5
f 104/71/136 93/49/113 92/61/112 103/72/137
s 6
f 105/73/138 97/50/121 96/64/120 106/74/139
s 7
f 107/76/140 102/48/130 101/69/129 108/77/141
s 5
f 101/69/127 93/49/113 109/75/142 108/77/143
s 8
f 109/75/144 110/51/145 107/76/146 108/77/147
s 5
f 109/75/142 93/49/113 104/71/136 111/79/148
s 6
f 104/71/134 97/50/121 112/78/149 111/79/150
s 8
f 112/78/151 110/51/145 109/75/144 111/79/152
s 6
f 112/78/149 97/50/121 105/73/138 113/80/153
s 4
f 96/64/118 86/47/101 106/74/154
s 8
f 113/80/155 110/51/145 112/78/151
s 7
f 98/67/131 102/48/130 99/68/156
s 1
f 89/60/157 78/44/87 77/54/86
s 9
f 114/86/158 89/60/159 88/59/160
f 102/48/161 114/86/158 99/68/162
f 107/76/163 114/86/158 102/48/161
f 86/47/164 114/86/158 106/74/165
f 113/80/166 114/86/158 110/51/167
f 84/83/168 78/44/169 114/86/158
f 106/74/165 114/86/158 105/73/170
f 114/86/158 78/44/169 89/60/159
f 114/86/158 88/59/160 99/68/162
f 105/73/170 114/86/158 113/80/166
f 110/51/167 114/86/158 107/76/163
f 84/83/168 114/86/158 86/47/164
s 13
f 49/87/171 50/90/172 47/89/173 39/88/174
s 14
f 47/89/175 50/90/176 48/92/177 41/91/178
s 15
f 48/92/179 50/90/180 49/87/181 40/93/182
s 13
f 47/89/173 53/95/183 51/94/184 39/88/174
s 16
f 51/96/185 53/99/186 52/98/187 42/97/188
s 14
f 52/98/189 53/99/190 47/101/175 41/100/178
s 15
f 49/87/181 55/103/191 54/102/192 40/93/182
f 57/104/193 58/105/194 48/92/179 40/93/182
s 14
f 48/92/177 58/105/195 56/106/196 41/91/178
s 17
f 56/106/197 58/105/198 57/104/199 44/107/200
s 14
f 60/108/201 61/109/202 52/98/189 41/100/178
s 16
f 52/98/187 61/109/203 59/110/204 42/97/188
s 18
f 59/110/205 61/109/206 60/108/207 45/111/208
s 15
f 54/102/192 63/113/209 62/112/210 40/93/182
f 62/112/210 65/114/211 57/104/193 40/93/182
s 17
f 57/104/199 65/114/212 64/115/213 44/107/200
s 19
f 64/115/214 65/114/215 62/112/216 43/116/217
s 14
f 56/117/196 67/118/218 60/108/201 41/100/178
s 18
f 60/108/207 67/118/219 66/119/220 45/111/208
s 17
f 66/119/221 67/118/222 56/117/197 44/107/200
s 18
f 68/120/223 69/121/224 59/110/205 45/111/208
s 19
f 71/122/225 72/123/226 64/115/214 43/116/217
s 17
f 64/115/213 72/123/227 70/124/228 44/107/200
s 20
f 70/124/229 72/123/230 71/122/231 46/125/232
s 17
f 70/124/228 74/126/233 66/119/221 44/107/200
s 18
f 66/119/220 74/126/234 73/127/235 45/111/208
s 20
f 73/127/236 74/126/237 70/124/229 46/125/232
s 18
f 73/127/235 75/128/238 68/120/223 45/111/208
s 16
f 59/110/204 69/121/239 42/97/188
s 20
f 75/128/240 73/127/236 46/125/232
s 19
f 62/112/216 63/113/241 43/116/217
s 13
f 55/103/242 49/87/171 39/88/174
s 21
f 76/129/243 54/102/244 55/103/245
f 43/116/246 63/113/247 76/129/243
f 71/122/248 43/116/246 76/129/243
f 42/97/249 69/121/250 76/129/243
f 75/128/251 46/125/252 76/129/243
f 51/94/253 76/129/243 39/88/254
f 69/121/250 68/120/255 76/129/243
f 76/129/243 55/103/245 39/88/254
f 76/129/243 63/113/247 54/102/244
f 68/120/255 75/128/251 76/129/243
f 46/125/252 71/122/248 76/129/243
f 51/94/253 42/97/249 76/129/243
